<?xml version="1.0" encoding="UTF-8" standalone="no"?><!DOCTYPE svg PUBLIC "-//W3C//DTD SVG 1.1//EN" "http://www.w3.org/Graphics/SVG/1.1/DTD/svg11.dtd"><svg width="100%" height="100%" viewBox="0 0 512 512" version="1.1" xmlns="http://www.w3.org/2000/svg" xmlns:xlink="http://www.w3.org/1999/xlink" xml:space="preserve" xmlns:serif="http://www.serif.com/" style="fill-rule:evenodd;clip-rule:evenodd;stroke-linejoin:round;stroke-miterlimit:1.41421;"><g id="outline"><path d="M280,104c0,-13.166 -10.834,-24 -24,-24c-13.166,0 -24,10.834 -24,24c0,13.166 10.834,24 24,24c13.166,0 24,-10.834 24,-24Zm-32,0c0,-4.389 3.611,-8 8,-8c4.389,0 8,3.611 8,8c0,4.389 -3.611,8 -8,8c-4.389,0 -8,-3.611 -8,-8Z" style="fill-rule:nonzero;"/><path d="M72,152c-13.166,0 -24,10.834 -24,24c0,13.166 10.834,24 24,24c13.166,0 24,-10.834 24,-24c0,-13.166 -10.834,-24 -24,-24Zm0,32c-4.389,0 -8,-3.611 -8,-8c0,-4.389 3.611,-8 8,-8c4.389,0 8,3.611 8,8c0,4.389 -3.611,8 -8,8Z" style="fill-rule:nonzero;"/><path d="M440,112c-13.166,0 -24,10.834 -24,24c0,13.166 10.834,24 24,24c13.166,0 24,-10.834 24,-24c0,-13.166 -10.834,-24 -24,-24Zm0,32c-4.389,0 -8,-3.611 -8,-8c0,-4.389 3.611,-8 8,-8c4.389,0 8,3.611 8,8c0,4.389 -3.611,8 -8,8Z" style="fill-rule:nonzero;"/><path d="M424,48c-39.481,0.044 -71.956,32.519 -72,72c0.463,13.83 4.991,27.223 13.016,38.496c-17.816,13.723 -33.832,29.635 -47.672,47.36c-11.875,-5.484 -24.437,-9.337 -37.344,-11.456l0,-36.512c28.889,-11.052 48.054,-38.957 48,-69.888c0,-39.498 -32.502,-72 -72,-72c-39.498,0 -72,32.502 -72,72c-0.054,30.931 19.111,58.836 48,69.888l0,34.256c-10.055,0.098 -20.007,2.042 -29.36,5.736c-9.898,-14.854 -25.198,-25.289 -42.64,-29.08l0,-8.8c0,-39.498 -32.502,-72 -72,-72c-39.498,0 -72,32.502 -72,72c0,39.498 32.502,72 72,72c15.56,-0.02 30.619,-5.561 42.48,-15.632c11.035,0.432 21.305,5.828 27.92,14.672c-14.88,19.024 -22.4,46.216 -22.4,80.96l0,136l-7.144,0c-11.893,-0.149 -22.285,8.321 -24.536,20c-0.223,1.322 -0.336,2.66 -0.336,4c0,13.166 10.834,24 24,24c0.006,0 0.011,0 0.016,0l96,0c4.389,0 8,-3.611 8,-8l0,-16c0,-4.389 3.611,-8 8,-8l32,0c4.389,0 8,3.611 8,8l0,16c0,4.389 3.611,8 8,8l96,0c0.005,0 0.01,0 0.016,0c13.166,0 24,-10.834 24,-24c0,-1.34 -0.113,-2.678 -0.336,-4c-2.251,-11.679 -12.643,-20.149 -24.536,-20l-7.144,0l0,-136c0,-24.528 0,-47.784 -14.688,-72.248c10.451,-18.47 24.444,-34.698 41.176,-47.752l21.512,0c39.498,0 72,-32.502 72,-72c0,-39.498 -32.502,-72 -72,-72Zm39.112,32l-78.224,0c21.573,-21.195 56.651,-21.195 78.224,0Zm-168,-32l-78.224,0c21.573,-21.195 56.651,-21.195 78.224,0Zm-168,72l-78.224,0c21.573,-21.195 56.651,-21.195 78.224,0Zm296.888,56l-24,0c-1.58,0.002 -3.124,0.47 -4.44,1.344c-21.021,15.643 -38.313,35.757 -50.624,58.888c-1.385,2.598 -1.228,5.76 0.408,8.208c14.656,21.96 14.656,43.104 14.656,67.56l0,136l-32,0l0,16l55.144,0c4.094,-0.151 7.763,2.621 8.736,6.6c0.082,0.462 0.123,0.931 0.123,1.4c0,4.389 -3.611,8 -8,8c-0.001,0 -0.002,0 -0.003,0l-88,0l0,-8c0,-13.166 -10.834,-24 -24,-24l-32,0c-13.166,0 -24,10.834 -24,24l0,8l-88,0c-0.001,0 -0.002,0 -0.003,0c-4.389,0 -8,-3.611 -8,-8c0,-0.469 0.041,-0.938 0.123,-1.4c0.973,-3.979 4.642,-6.751 8.736,-6.6l55.144,0l0,-16l-32,0l0,-136c0,-33.432 7.384,-58.536 21.936,-74.632c2.138,-2.367 2.665,-5.796 1.336,-8.696c-11.336,-24.8 -36.8,-27.568 -46.4,-28.624c-2.221,-0.235 -4.442,0.464 -6.128,1.928c-9.37,8.925 -21.804,13.944 -34.744,14.024c-0.042,0 -0.084,0 -0.126,0c-30.651,0 -55.872,-25.221 -55.872,-55.872c0,-8.351 1.872,-16.596 5.478,-24.128l101.04,0c3.596,7.49 5.468,15.692 5.48,24l0,16c-0.003,4.285 3.438,7.85 7.72,8c15.616,0.552 29.232,9.856 41.6,28.448c2.28,3.422 6.847,4.557 10.464,2.6c11.235,-5.512 23.734,-7.945 36.216,-7.048c4.389,0 8,-3.611 8,-8l0,-48c0.003,-3.638 -2.477,-6.842 -6,-7.752c-24.81,-7.402 -41.95,-30.357 -42,-56.248c0.012,-8.308 1.884,-16.51 5.48,-24l101.04,0c3.596,7.49 5.468,15.692 5.48,24c-0.05,25.891 -17.19,48.846 -42,56.248c-3.523,0.91 -6.003,4.114 -6,7.752l0,49.232c-0.003,3.973 2.954,7.376 6.888,7.928c15.886,1.941 31.303,6.681 45.536,14c3.592,1.794 8.005,0.621 10.232,-2.72c15.234,-20.704 33.538,-38.962 54.28,-54.144c1.932,-1.515 3.062,-3.839 3.062,-6.294c0,-1.797 -0.605,-3.543 -1.718,-4.954c-8.441,-9.818 -13.456,-22.126 -14.28,-35.048c0.012,-8.308 1.884,-16.51 5.48,-24l101.04,0c3.606,7.532 5.478,15.777 5.478,24.128c0,30.651 -25.221,55.872 -55.872,55.872c-0.042,0 -0.084,0 -0.126,0Z" style="fill-rule:nonzero;"/><path d="M212.954,359.4c27.499,10.751 57.924,11.487 85.911,2.08c3.062,-1.137 5.134,-4.041 5.213,-7.308c0.106,-4.388 -3.418,-8.087 -7.807,-8.194c-1.016,-0.024 -2.028,0.145 -2.981,0.499c-24.148,7.929 -50.306,7.296 -74.042,-1.792c-0.934,-0.402 -1.937,-0.619 -2.953,-0.64c-0.003,0 -0.005,0 -0.008,0c-4.387,-0.107 -8.085,3.416 -8.191,7.804c-0.079,3.267 1.852,6.269 4.858,7.551Z" style="fill-rule:nonzero;"/><path d="M264,376l-16,0c-4.389,0 -8,3.611 -8,8c0,4.389 3.611,8 8,8l16,0c4.389,0 8,-3.611 8,-8c0,-4.389 -3.611,-8 -8,-8Z" style="fill-rule:nonzero;"/><rect x="168" y="400" width="16" height="16"/><rect x="200" y="416" width="16" height="16"/></g></svg>